<svg xmlns="http://www.w3.org/2000/svg" viewBox="0 0 24 24" fill="#6366f1">
  <path d="M14.625 2.162a1.125 1.125 0 0 1 1.125.5 1.123 1.123 0 0 1 .365.812v.748c0 .245.06.49.178.718l.099.192a.38.38 0 0 0 .31.168h.748c.32 0 .63.125.85.345.22.22.345.53.345.85v.748c0 .12.015.24.045.358l.05.192c.07.27.31.46.59.46h.748c.32 0 .63.125.85.345.22.22.345.53.345.85v.748c0 .12.015.24.045.358l.05.192c.07.27.31.46.59.46h.748c.32 0 .63.125.85.345.22.22.345.53.345.85v.748c0 .12.015.24.045.358l.05.192c.07.27.31.46.59.46h.748c.552 0 1 .448 1 1v1.125c0 .32-.125.63-.345.85-.22.22-.53.345-.85.345h-.748c-.27 0-.52.19-.59.46l-.05.192a.38.38 0 0 0 .045.358v.748c0 .32-.125.63-.345.85-.22.22-.53.345-.85.345h-.748c-.27 0-.52.19-.59.46l-.05.192a.38.38 0 0 0 .045.358v.748c0 .32-.125.63-.345.85-.22.22-.53.345-.85.345h-.748c-.27 0-.52.19-.59.46l-.05.192a.38.38 0 0 0 .045.358v.748c0 .552-.448 1-1 1H9.375c-.32 0-.63-.125-.85-.345-.22-.22-.345-.53-.345-.85v-.748c0-.12-.015-.24-.045-.358l-.05-.192c-.07-.27-.31-.46-.59-.46H7.125c-.32 0-.63-.125-.85-.345-.22-.22-.345-.53-.345-.85v-.748c0-.12-.015-.24-.045-.358l-.05-.192c-.07-.27-.31-.46-.59-.46H4.875c-.32 0-.63-.125-.85-.345-.22-.22-.345-.53-.345-.85v-.748c0-.12-.015-.24-.045-.358l-.05-.192c-.07-.27-.31-.46-.59-.46H2.625c-.552 0-1-.448-1-1V9.375c0-.32.125-.63.345-.85.22-.22.53-.345.85-.345h.748c.27 0 .52-.19.59-.46l.05-.192a.38.38 0 0 0-.045-.358v-.748c0-.32.125-.63.345-.85.22-.22.53.345.85-.345h.748c.27 0 .52-.19.59-.46l.05-.192a.38.38 0 0 0-.045-.358v-.748c0-.32.125-.63.345-.85.22-.22.53.345.85-.345h.748c.27 0 .52-.19.59-.46l.05-.192a.38.38 0 0 0-.045-.358v-.748c0-.552.448-1 1-1Z" />
</svg>


